<?xml version="1.0" standalone="no"?>
<!DOCTYPE svg PUBLIC "-//W3C//DTD SVG 20010904//EN"
 "http://www.w3.org/TR/2001/REC-SVG-20010904/DTD/svg10.dtd">
<svg version="1.0" xmlns="http://www.w3.org/2000/svg"
 width="16.000000pt" height="16.000000pt" viewBox="0 0 16.000000 16.000000"
 preserveAspectRatio="xMidYMid meet">
<metadata>
Created by potrace 1.11, written by Peter Selinger 2001-2013
</metadata>
<g transform="translate(0.000000,16.000000) scale(0.005333,-0.005333)"
fill="#000000" stroke="none">
<path d="M1340 2869 c-534 -68 -978 -430 -1145 -932 -57 -171 -69 -252 -69
-442 0 -189 18 -298 75 -462 136 -387 453 -704 840 -841 167 -59 275 -77 464
-76 190 0 300 18 462 75 329 116 619 375 782 697 146 289 176 701 75 1026 -37
117 -136 307 -215 412 -293 390 -793 604 -1269 543z m875 -1319 c3 -5 -1 -10
-10 -10 -9 0 -13 5 -10 10 3 6 8 10 10 10 2 0 7 -4 10 -10z m269 -22 c-18 -33
-39 -48 -66 -48 -26 0 -28 2 -17 21 8 15 8 19 0 15 -6 -4 -16 -16 -21 -27 -10
-17 -7 -21 17 -30 34 -11 63 -49 38 -49 -27 0 -16 -20 14 -26 16 -4 41 -18 55
-33 l26 -28 -24 -11 c-20 -9 -34 -6 -87 21 -61 31 -95 67 -50 52 12 -4 21 -2
21 4 0 6 -6 11 -13 11 -7 0 -25 14 -40 31 -24 28 -25 31 -7 26 11 -3 23 -1 26
4 3 5 -2 9 -10 9 -32 0 0 44 40 57 54 16 107 17 98 1z m-244 -28 c0 -5 -17 -9
-37 -9 l-38 2 35 7 c19 4 36 8 38 9 1 0 2 -3 2 -9z m-117 -17 c-7 -2 -19 -2
-25 0 -7 3 -2 5 12 5 14 0 19 -2 13 -5z m715 -24 c-6 -16 -12 -28 -14 -26 -5
5 13 57 20 57 3 0 0 -14 -6 -31z m-341 15 c-3 -3 -12 -4 -19 -1 -8 3 -5 6 6 6
11 1 17 -2 13 -5z m303 -8 c0 -3 -4 -8 -10 -11 -5 -3 -10 -1 -10 4 0 6 5 11
10 11 6 0 10 -2 10 -4z m-110 -36 c0 -5 -4 -10 -10 -10 -5 0 -10 5 -10 10 0 6
5 10 10 10 6 0 10 -4 10 -10z m-358 -6 c5 -3 0 -17 -10 -32 -11 -15 -17 -32
-15 -39 6 -17 -33 -26 -75 -18 -21 4 -53 8 -72 10 -19 2 -46 8 -60 14 -24 9
-24 10 8 10 18 1 54 6 79 12 37 10 47 9 54 -2 5 -8 9 -10 9 -5 0 5 6 3 13 -3
18 -14 30 -2 16 16 -6 7 -24 13 -39 13 -36 0 -61 10 -55 20 6 9 133 12 147 4z
m214 -31 c-11 -11 -19 6 -11 24 8 17 8 17 12 0 3 -10 2 -21 -1 -24z m-681 7
c3 -5 1 -10 -4 -10 -6 0 -11 5 -11 10 0 6 2 10 4 10 3 0 8 -4 11 -10z m163
-47 c17 -16 10 -16 -23 -1 -14 6 -25 15 -25 19 0 11 31 -1 48 -18z m-303 -13
c-3 -5 -1 -10 4 -10 6 0 11 4 11 8 0 5 7 9 15 9 23 0 18 -14 -7 -21 l-23 -7
23 -9 c30 -13 302 -23 302 -11 0 4 -24 12 -52 17 -37 5 -45 9 -27 11 14 2 58
-3 99 -11 40 -9 77 -13 83 -9 6 3 7 1 3 -6 -5 -8 -24 -10 -54 -7 -45 5 -45 5
-14 -6 44 -15 41 -29 -4 -17 -19 6 -70 10 -112 9 -72 -1 -259 4 -310 8 -14 1
-20 6 -17 13 4 6 13 8 19 6 7 -3 19 -1 27 4 10 6 8 9 -11 10 -25 1 -24 1 5 14
36 17 48 18 40 5z m930 -4 c-32 -14 -41 -13 -30 3 3 6 18 11 33 11 l27 -1 -30
-13z m-820 -16 c-3 -5 -17 -10 -31 -10 -14 0 -22 4 -19 10 3 6 17 10 31 10 14
0 22 -4 19 -10z m-270 -20 c-3 -5 -16 -10 -28 -10 -18 0 -19 2 -7 10 20 13 43
13 35 0z m995 -30 c43 -22 54 -35 44 -51 -5 -8 -10 -6 -16 5 -10 18 -34 21
-44 5 -4 -8 1 -9 17 -5 23 7 23 7 5 -8 -11 -9 -23 -16 -27 -16 -12 0 -21 54
-9 58 7 3 4 9 -7 18 -26 20 -8 17 37 -6z m-163 -38 c-34 -4 -48 5 -27 18 8 5
22 4 34 -3 20 -11 20 -12 -7 -15z m-128 9 c13 -3 25 -14 27 -23 1 -12 -6 -16
-32 -15 -28 1 -31 3 -17 11 15 8 12 11 -17 22 -30 11 -31 12 -10 12 14 0 36
-3 49 -7z m-144 -22 c5 -6 3 -9 -7 -9 -9 0 -24 -3 -34 -7 -13 -5 -16 -3 -11
10 3 8 1 18 -6 21 -7 4 2 4 18 0 17 -3 34 -10 40 -15z"/>
<path d="M2165 1360 c-3 -5 -1 -10 4 -10 6 0 11 5 11 10 0 6 -2 10 -4 10 -3 0
-8 -4 -11 -10z"/>
</g>
</svg>
